<svg xmlns="http://www.w3.org/2000/svg" xmlns:xlink="http://www.w3.org/1999/xlink" width="507.04833984375" height="512" viewBox="0 0 507.04833984375 512" fill="none">
<rect x="0" y="0" width="0" height="0" fill="rgba(249, 249, 249, 1)" />
<g  clip-path="url(#clip-path-6Ug6guvXqv--d7iLdcVdb)">
<path d="M239.73 11C243.881 13.3002 248.308 16.1788 252.315 18.7497C269.415 29.7205 286.65 41.3313 302.401 54.096C315.434 55.3416 323.999 56.0331 337.142 58.8492C378.275 68.0454 415.706 89.0229 444.694 119.127C487.923 163.854 511.297 223.615 509.683 285.268C512.919 284.312 516.584 282.936 519.921 281.882C516.858 291.6 513.18 301.121 508.904 310.386C505.811 317.141 502.02 323.216 500.448 330.483C500.048 332.333 499.332 334.459 498.793 336.294C496.998 342.403 494.933 348.433 492.608 354.366C478.528 391.873 455.837 425.688 426.297 453.187C415.169 463.496 401.091 474.772 388.056 482.809C362.355 498.464 333.363 508.173 303.277 511.198C292.824 512.162 284.821 512.108 274.48 511.806C272.201 511.595 269.921 511.471 267.639 511.276C208.938 506.261 157.683 474.487 120.439 430.716C107.368 432.756 83.2974 435.301 70.3088 432.814C65.0599 431.784 60.0199 429.913 55.3903 427.273C34.215 415.443 15.3057 386.839 8.91284 364.102C28.5886 363.979 48.2618 363.611 67.9285 362.999C69.3087 361.433 70.8157 359.857 72.2418 358.322C67.361 346.427 63.5866 334.122 60.9649 321.559C49.0454 261.412 61.6158 199.073 95.9755 147.931C127.82 101.096 174.098 68.1203 230.607 57.0284C233.783 41.7119 236.824 26.3685 239.73 11Z"   fill="#000000" >
</path>
<path d="M254.821 30.707C256.229 31.2661 263.916 36.5835 265.599 37.7374C334.376 84.297 385.714 151.722 411.748 229.684C416.196 243.039 421.402 261.414 423.917 275.297C395.759 266.889 372.029 265.952 343.054 270.84C301.362 278.768 271.743 294.99 241.777 324.109C243.554 320.027 245.49 314.368 247.067 310.111C251.946 297.081 256.333 283.878 260.214 270.527C271.798 230.852 278.672 184.661 276.712 143.35C275.448 120.471 272.215 97.7351 267.052 75.3907C263.628 60.13 259.282 45.6816 254.821 30.707Z"   fill="#FFFFFF" >
</path>
<path d="M475.295 359.792C475.451 360.881 470.985 369.318 470.273 370.727C456.581 397.919 438.273 421.477 415.733 442.02C377.28 477.075 327.445 497.763 274.598 495.276C218.926 493.136 170.291 467.132 132.956 427.333C131.747 426.059 130.482 424.559 129.312 423.227C168.24 413.853 197.719 393.613 224.49 364.736C232.293 371.131 240.368 377.2 248.696 382.92C281.495 405.302 316.697 421.017 356.307 427.456C367.908 429.343 381.089 430.651 392.703 428.487C425.186 422.428 457.723 385.02 475.295 359.792Z"   fill="#E5E5E5" >
</path>
<path d="M312.358 58.9631C319.716 59.9286 327.004 61.3342 334.188 63.1712C372.51 72.6744 407.324 92.6129 434.623 120.691C467.867 155.062 489.158 198.9 495.435 245.907C497.188 259.366 497.318 269.864 497.065 283.235C474.159 290.623 448.085 297.247 424.69 303.046C377.909 314.6 330.745 324.597 283.275 333.014C271.032 335.185 256.176 338.019 244.003 339.534C260.287 320.752 280.532 305.671 303.334 295.331C336.997 280.008 374.847 275.962 411.077 283.814C421.586 286.2 429.272 289.008 439.286 292.712C425.792 212.884 397.565 148.643 341.95 87.972C336.591 82.1424 331.04 76.4844 325.307 71.0086C321.031 66.951 316.589 63.0546 312.358 58.9631Z"   fill="#E5E5E5" >
</path>
<path d="M225.321 62.39C225.536 62.445 225.392 62.39 225.656 62.7153C225.238 65.4313 223.706 70.8141 222.978 73.6708C220.778 82.504 218.333 91.2766 215.649 99.9799C199.464 153.09 175.11 202.334 145.395 249.398C136.971 262.588 128.245 275.59 119.225 288.394C105.987 307.686 92.0711 326.519 77.5014 344.862C76.3887 341.975 75.3263 339.07 74.3198 336.146C72.2715 329.776 70.6551 324.397 69.1246 317.864C65.8342 303.356 64.138 288.542 64.0613 273.679C63.3224 231.652 75.0023 190.317 97.6883 154.677C127.108 108.558 170.831 74.7039 225.321 62.39Z"   fill="#E5E5E5" >
</path>
<path d="M243.771 36.396C244.689 37.5537 247.208 46.8345 247.81 48.9397C251.125 60.2501 253.988 71.6838 256.393 83.2143C265.39 125.047 267.035 164.229 261.559 206.594C255.289 255.095 240.12 298.307 221.311 343.33L218.667 343.664C213.562 338.901 208.018 334.613 202.105 330.858C180.886 317.629 159.549 315.104 135.394 320.369C122.189 323.82 113.179 327.721 101.075 334.204C106.034 326.798 112.211 318.702 117.441 311.306C128.243 296.065 138.77 280.637 149.018 265.03C196.133 192.714 227.813 121.089 243.771 36.396Z"   fill="#FFFFFF" >
</path>
<path d="M495.857 295.846L496.241 295.912C496.388 296.841 494.615 300.54 494.176 301.543C488.164 315.176 481.226 328.395 473.406 341.111C459.82 363.604 442.466 384.606 421.423 400.764C413.355 406.957 404.487 412.73 394.444 415.193C370.936 420.962 328.709 409.703 306.665 400.851C293.074 395.393 280.255 388.762 267.708 381.297C256.871 374.685 239.932 363.003 230.636 354.218C239.743 352.467 249.791 351.052 259.054 349.478C280.13 345.95 301.155 342.134 322.122 338.029C365.282 329.384 408.176 319.504 450.749 308.4C466.051 304.39 480.724 300.018 495.857 295.846Z"   fill="#217DF7" >
</path>
<path d="M474.409 313.521L474.716 313.559L474.754 313.973C459.71 346.767 441.034 371.972 414.397 396.606C427.969 374.771 444.387 352.234 456.335 329.54C444.766 332.162 433.362 335.172 421.578 337.761C397.343 343.155 372.792 347.081 348.066 349.514C341.046 350.139 332.652 350.883 325.702 350.849C331.682 349.132 340.266 347.462 346.539 346.054L380.135 338.289C411.797 330.926 443.233 322.667 474.409 313.521Z"   fill="#000000" >
</path>
<path d="M212.354 356.842C213.047 356.734 213.488 356.592 214.145 356.82L214.183 357.272C213.292 358.805 207.976 364.1 206.397 365.645C186.589 384.924 162.137 401.007 135.255 408.881C117.98 413.943 99.2304 415.636 81.276 416.161C65.5795 416.62 54.7514 409.551 44.0315 399.114C36.5937 391.98 28.3712 380.364 23.9375 371.177C87.0073 370.747 149.968 365.956 212.354 356.842Z"   fill="#217DF7" >
</path>
<path d="M153.247 330.485C155.716 330.212 160.294 330.343 162.751 330.498C177.534 331.43 190.565 337.005 202.221 345.733C179.786 348.665 157.287 351.093 134.74 353.013C119.453 354.349 104.146 355.449 88.8242 356.317C91.336 354.255 95.837 351.334 98.6412 349.607C115.755 339.068 133.098 332.102 153.247 330.485Z"   fill="#E5E5E5" >
</path>
</g>
<defs>
<clipPath id="clip-path-6Ug6guvXqv--d7iLdcVdb">
<path d="M0 512L507.048 512L507.048 0L0 0L0 512Z" fill="white"/>
</clipPath>
</defs>
</svg>
